<mxfile host="app.diagrams.net" agent="Mozilla/5.0 (Macintosh; Intel Mac OS X 10_15_7) AppleWebKit/605.1.15 (KHTML, like Gecko) Version/18.1.1 Safari/605.1.15" version="25.0.3">
  <diagram name="Pagina-1" id="Mlr7yCF4ta72tmv3ssqh">
    <mxGraphModel grid="1" page="1" gridSize="10" guides="1" tooltips="1" connect="1" arrows="1" fold="1" pageScale="1" pageWidth="827" pageHeight="1169" math="0" shadow="0">
      <root>
        <mxCell id="0" />
        <mxCell id="1" parent="0" />
        <mxCell id="LOhFXb6PWQSiFxZN6ZSV-18" style="edgeStyle=orthogonalEdgeStyle;rounded=0;orthogonalLoop=1;jettySize=auto;html=1;entryX=0;entryY=0.5;entryDx=0;entryDy=0;curved=1;" edge="1" parent="1" source="LOhFXb6PWQSiFxZN6ZSV-1" target="LOhFXb6PWQSiFxZN6ZSV-10">
          <mxGeometry relative="1" as="geometry" />
        </mxCell>
        <mxCell id="LOhFXb6PWQSiFxZN6ZSV-25" style="edgeStyle=orthogonalEdgeStyle;rounded=0;orthogonalLoop=1;jettySize=auto;html=1;entryX=0;entryY=0.5;entryDx=0;entryDy=0;curved=1;" edge="1" parent="1" source="LOhFXb6PWQSiFxZN6ZSV-1" target="LOhFXb6PWQSiFxZN6ZSV-9">
          <mxGeometry relative="1" as="geometry" />
        </mxCell>
        <mxCell id="LOhFXb6PWQSiFxZN6ZSV-1" value="User" style="shape=umlActor;verticalLabelPosition=bottom;verticalAlign=top;html=1;outlineConnect=0;" vertex="1" parent="1">
          <mxGeometry x="40" y="80" width="30" height="60" as="geometry" />
        </mxCell>
        <mxCell id="LOhFXb6PWQSiFxZN6ZSV-7" value="Log in" style="ellipse;whiteSpace=wrap;html=1;" vertex="1" parent="1">
          <mxGeometry x="430" y="80" width="120" height="50" as="geometry" />
        </mxCell>
        <mxCell id="LOhFXb6PWQSiFxZN6ZSV-23" style="edgeStyle=orthogonalEdgeStyle;rounded=0;orthogonalLoop=1;jettySize=auto;html=1;entryX=0;entryY=0.5;entryDx=0;entryDy=0;curved=1;dashed=1;" edge="1" parent="1" source="LOhFXb6PWQSiFxZN6ZSV-9" target="LOhFXb6PWQSiFxZN6ZSV-7">
          <mxGeometry relative="1" as="geometry" />
        </mxCell>
        <mxCell id="LOhFXb6PWQSiFxZN6ZSV-9" value="Log out" style="ellipse;whiteSpace=wrap;html=1;" vertex="1" parent="1">
          <mxGeometry x="190" y="40" width="120" height="50" as="geometry" />
        </mxCell>
        <mxCell id="LOhFXb6PWQSiFxZN6ZSV-24" style="edgeStyle=orthogonalEdgeStyle;rounded=0;orthogonalLoop=1;jettySize=auto;html=1;entryX=0;entryY=0.5;entryDx=0;entryDy=0;curved=1;dashed=1;" edge="1" parent="1" source="LOhFXb6PWQSiFxZN6ZSV-10" target="LOhFXb6PWQSiFxZN6ZSV-7">
          <mxGeometry relative="1" as="geometry" />
        </mxCell>
        <mxCell id="LOhFXb6PWQSiFxZN6ZSV-10" value="Delete profile" style="ellipse;whiteSpace=wrap;html=1;" vertex="1" parent="1">
          <mxGeometry x="190" y="130" width="120" height="50" as="geometry" />
        </mxCell>
        <mxCell id="LOhFXb6PWQSiFxZN6ZSV-26" value="&amp;lt;&amp;lt;include&amp;gt;&amp;gt;" style="text;html=1;align=center;verticalAlign=middle;whiteSpace=wrap;rounded=0;" vertex="1" parent="1">
          <mxGeometry x="340" y="50" width="50" height="10" as="geometry" />
        </mxCell>
        <mxCell id="LOhFXb6PWQSiFxZN6ZSV-27" value="&amp;lt;&amp;lt;include&amp;gt;&amp;gt;" style="text;html=1;align=center;verticalAlign=middle;whiteSpace=wrap;rounded=0;" vertex="1" parent="1">
          <mxGeometry x="340" y="160" width="50" as="geometry" />
        </mxCell>
        <mxCell id="E3Zhh8DlFjRngd-1aeLq-3" style="edgeStyle=orthogonalEdgeStyle;rounded=0;orthogonalLoop=1;jettySize=auto;html=1;exitX=0.5;exitY=1;exitDx=0;exitDy=0;" edge="1" parent="1" source="LOhFXb6PWQSiFxZN6ZSV-26" target="LOhFXb6PWQSiFxZN6ZSV-26">
          <mxGeometry relative="1" as="geometry" />
        </mxCell>
      </root>
    </mxGraphModel>
  </diagram>
</mxfile>
